<svg width="35" height="35" viewBox="0 0 50 50" fill="none" xmlns="http://www.w3.org/2000/svg">
<g id="ion:attach">
<path id="Vector" d="M21.1016 18.75V32.7979C21.1178 33.8251 21.5372 34.8048 22.2694 35.5255C23.0016 36.2462 23.9878 36.6501 25.0151 36.6501C26.0425 36.6501 27.0287 36.2462 27.7609 35.5255C28.493 34.8048 28.9125 33.8251 28.9287 32.7979L28.9414 14.3848C28.9521 13.5068 28.7883 12.6354 28.4597 11.8212C28.1311 11.0069 27.6441 10.266 27.027 9.64138C26.4099 9.01674 25.6749 8.52081 24.8647 8.18233C24.0545 7.84385 23.1852 7.66956 22.3071 7.66956C21.4291 7.66956 20.5597 7.84385 19.7495 8.18233C18.9393 8.52081 18.2044 9.01674 17.5873 9.64138C16.9702 10.266 16.4832 11.0069 16.1546 11.8212C15.8259 12.6354 15.6622 13.5068 15.6729 14.3848V32.9219C15.655 34.158 15.883 35.3853 16.3436 36.5325C16.8043 37.6797 17.4884 38.7238 18.3562 39.6043C19.224 40.4847 20.2581 41.1839 21.3985 41.6611C22.5389 42.1383 23.7628 42.384 24.999 42.384C26.2352 42.384 27.4591 42.1383 28.5995 41.6611C29.7399 41.1839 30.7741 40.4847 31.6419 39.6043C32.5096 38.7238 33.1938 37.6797 33.6544 36.5325C34.1151 35.3853 34.3431 34.158 34.3252 32.9219V15.5997" stroke="black" stroke-width="4.0625" stroke-miterlimit="10" stroke-linecap="round"/>
</g>
</svg>
