<svg width="35" height="35" viewBox="0 0 35 35" fill="none" xmlns="http://www.w3.org/2000/svg">
<g id="fluent-emoji:house">
<g id="Group">
<path id="Vector" d="M6.66308 4.84314C6.66308 4.74161 6.70341 4.64424 6.7752 4.57245C6.84699 4.50066 6.94436 4.46033 7.04589 4.46033H10.7078C10.8093 4.46033 10.9067 4.50066 10.9785 4.57245C11.0502 4.64424 11.0906 4.74161 11.0906 4.84314V16.112H6.66089V4.84314H6.66308Z" fill="url(#paint0_radial_56_3155)"/>
<path id="Vector_2" d="M6.66308 4.84314C6.66308 4.74161 6.70341 4.64424 6.7752 4.57245C6.84699 4.50066 6.94436 4.46033 7.04589 4.46033H10.7078C10.8093 4.46033 10.9067 4.50066 10.9785 4.57245C11.0502 4.64424 11.0906 4.74161 11.0906 4.84314V16.112H6.66089V4.84314H6.66308Z" fill="url(#paint1_linear_56_3155)"/>
<path id="Vector_3" d="M6.66308 4.84314C6.66308 4.74161 6.70341 4.64424 6.7752 4.57245C6.84699 4.50066 6.94436 4.46033 7.04589 4.46033H10.7078C10.8093 4.46033 10.9067 4.50066 10.9785 4.57245C11.0502 4.64424 11.0906 4.74161 11.0906 4.84314V16.112H6.66089V4.84314H6.66308Z" fill="url(#paint2_linear_56_3155)"/>
<path id="Vector_4" d="M6.66308 4.84314C6.66308 4.74161 6.70341 4.64424 6.7752 4.57245C6.84699 4.50066 6.94436 4.46033 7.04589 4.46033H10.7078C10.8093 4.46033 10.9067 4.50066 10.9785 4.57245C11.0502 4.64424 11.0906 4.74161 11.0906 4.84314V16.112H6.66089V4.84314H6.66308Z" fill="url(#paint3_linear_56_3155)"/>
<path id="Vector_5" d="M6.66308 4.84314C6.66308 4.74161 6.70341 4.64424 6.7752 4.57245C6.84699 4.50066 6.94436 4.46033 7.04589 4.46033H10.7078C10.8093 4.46033 10.9067 4.50066 10.9785 4.57245C11.0502 4.64424 11.0906 4.74161 11.0906 4.84314V16.112H6.66089V4.84314H6.66308Z" fill="url(#paint4_radial_56_3155)"/>
<path id="Vector_6" d="M30.2488 31.8937H5.07617V17.1904L17.662 5.43042L30.2488 17.1915V31.8937Z" fill="url(#paint5_linear_56_3155)"/>
<path id="Vector_7" d="M30.2488 31.8937H5.07617V17.1904L17.662 5.43042L30.2488 17.1915V31.8937Z" fill="url(#paint6_linear_56_3155)"/>
<path id="Vector_8" d="M30.2488 31.8937H5.07617V17.1904L17.662 5.43042L30.2488 17.1915V31.8937Z" fill="url(#paint7_radial_56_3155)"/>
<path id="Vector_9" d="M30.2488 31.8937H5.07617V17.1904L17.662 5.43042L30.2488 17.1915V31.8937Z" fill="url(#paint8_linear_56_3155)"/>
<path id="Vector_10" d="M30.2488 31.8937H5.07617V17.1904L17.662 5.43042L30.2488 17.1915V31.8937Z" fill="url(#paint9_radial_56_3155)"/>
<path id="Vector_11" d="M30.2488 31.8937H5.07617V17.1904L17.662 5.43042L30.2488 17.1915V31.8937Z" fill="url(#paint10_linear_56_3155)"/>
<path id="Vector_12" d="M30.2488 31.8937H5.07617V17.1904L17.662 5.43042L30.2488 17.1915V31.8937Z" fill="url(#paint11_linear_56_3155)"/>
<g id="Group_2" filter="url(#filter0_f_56_3155)">
<path id="Vector_13" d="M16.4784 31.8937H8.88452V19.8526C8.88452 18.9361 9.46749 18.1825 10.1751 18.1825H15.1878C15.8966 18.1825 16.4784 18.9361 16.4784 19.8526V31.8937Z" fill="url(#paint12_linear_56_3155)"/>
</g>
<g id="Group_3" filter="url(#filter1_i_56_3155)">
<path id="Vector_14" d="M25.8673 23.9138H21.2845C21.1641 23.9139 21.0448 23.8903 20.9336 23.8443C20.8223 23.7983 20.7212 23.7308 20.6361 23.6456C20.5509 23.5605 20.4834 23.4594 20.4374 23.3481C20.3914 23.2368 20.3678 23.1176 20.3679 22.9972V18.4166C20.3679 17.9025 20.7857 17.5 21.2845 17.5H25.8651C26.3792 17.5 26.7817 17.9178 26.7817 18.4166V22.9972C26.7817 23.5112 26.3803 23.9138 25.8651 23.9138H25.8673Z" fill="url(#paint13_linear_56_3155)"/>
<path id="Vector_15" d="M25.8673 23.9138H21.2845C21.1641 23.9139 21.0448 23.8903 20.9336 23.8443C20.8223 23.7983 20.7212 23.7308 20.6361 23.6456C20.5509 23.5605 20.4834 23.4594 20.4374 23.3481C20.3914 23.2368 20.3678 23.1176 20.3679 22.9972V18.4166C20.3679 17.9025 20.7857 17.5 21.2845 17.5H25.8651C26.3792 17.5 26.7817 17.9178 26.7817 18.4166V22.9972C26.7817 23.5112 26.3803 23.9138 25.8651 23.9138H25.8673Z" fill="url(#paint14_linear_56_3155)"/>
</g>
<path id="Vector_16" d="M25.8673 23.9138H21.2845C21.1641 23.9139 21.0448 23.8903 20.9336 23.8443C20.8223 23.7983 20.7212 23.7308 20.6361 23.6456C20.5509 23.5605 20.4834 23.4594 20.4374 23.3481C20.3914 23.2368 20.3678 23.1176 20.3679 22.9972V18.4166C20.3679 17.9025 20.7857 17.5 21.2845 17.5H25.8651C26.3792 17.5 26.7817 17.9178 26.7817 18.4166V22.9972C26.7817 23.5112 26.3803 23.9138 25.8651 23.9138H25.8673Z" fill="url(#paint15_linear_56_3155)"/>
<path id="Vector_17" d="M25.8673 23.9138H21.2845C21.1641 23.9139 21.0448 23.8903 20.9336 23.8443C20.8223 23.7983 20.7212 23.7308 20.6361 23.6456C20.5509 23.5605 20.4834 23.4594 20.4374 23.3481C20.3914 23.2368 20.3678 23.1176 20.3679 22.9972V18.4166C20.3679 17.9025 20.7857 17.5 21.2845 17.5H25.8651C26.3792 17.5 26.7817 17.9178 26.7817 18.4166V22.9972C26.7817 23.5112 26.3803 23.9138 25.8651 23.9138H25.8673Z" fill="url(#paint16_linear_56_3155)"/>
<g id="Group_4" filter="url(#filter2_ii_56_3155)">
<path id="Vector_18" d="M17.7812 30.5134H9.31226V19.1012C9.31226 18.2317 9.96085 17.5175 10.7516 17.5175H16.3407C17.1315 17.5175 17.7812 18.2317 17.7812 19.1012V30.5134Z" fill="url(#paint17_linear_56_3155)"/>
</g>
<g id="Group_5" filter="url(#filter3_f_56_3155)">
<path id="Vector_19" d="M15.6593 24.3611C15.821 24.3611 15.9761 24.2969 16.0905 24.1825C16.2048 24.0682 16.2691 23.9131 16.2691 23.7514C16.2691 23.5896 16.2048 23.4345 16.0905 23.3202C15.9761 23.2058 15.821 23.1416 15.6593 23.1416C15.4976 23.1416 15.3425 23.2058 15.2282 23.3202C15.1138 23.4345 15.0496 23.5896 15.0496 23.7514C15.0496 23.9131 15.1138 24.0682 15.2282 24.1825C15.3425 24.2969 15.4976 24.3611 15.6593 24.3611Z" fill="#62393D"/>
</g>
<g id="Group_6" filter="url(#filter4_ii_56_3155)">
<path id="Vector_20" d="M15.8177 24.2692C15.981 24.2692 16.1376 24.2043 16.2531 24.0888C16.3686 23.9733 16.4335 23.8167 16.4335 23.6534C16.4335 23.4901 16.3686 23.3334 16.2531 23.218C16.1376 23.1025 15.981 23.0376 15.8177 23.0376C15.6544 23.0376 15.4977 23.1025 15.3823 23.218C15.2668 23.3334 15.2019 23.4901 15.2019 23.6534C15.2019 23.8167 15.2668 23.9733 15.3823 24.0888C15.4977 24.2043 15.6544 24.2692 15.8177 24.2692Z" fill="#895D56"/>
</g>
<path id="Vector_21" d="M32.526 17.3327L18.5916 3.6039C18.3427 3.35584 18.0057 3.21655 17.6543 3.21655C17.3029 3.21655 16.9658 3.35584 16.7169 3.6039C16.7169 3.6039 16.7016 3.6039 16.7016 3.61921L2.73772 17.3622C2.615 17.4824 2.5175 17.626 2.45094 17.7844C2.38438 17.9428 2.3501 18.1129 2.3501 18.2848C2.3501 18.4566 2.38438 18.6267 2.45094 18.7851C2.5175 18.9435 2.615 19.0871 2.73772 19.2073C2.98826 19.4522 3.32471 19.5894 3.67507 19.5894C4.02542 19.5894 4.36187 19.4522 4.61241 19.2073L17.4541 6.55156C17.5053 6.50113 17.5742 6.47286 17.6461 6.47286C17.7179 6.47286 17.7869 6.50113 17.838 6.55156L30.6371 19.1625C30.886 19.4106 31.223 19.5498 31.5744 19.5498C31.9258 19.5498 32.2629 19.4106 32.5118 19.1625C33.028 18.6452 33.0433 17.8325 32.526 17.3316V17.3327Z" fill="url(#paint18_linear_56_3155)"/>
<path id="Vector_22" d="M32.526 17.3327L18.5916 3.6039C18.3427 3.35584 18.0057 3.21655 17.6543 3.21655C17.3029 3.21655 16.9658 3.35584 16.7169 3.6039C16.7169 3.6039 16.7016 3.6039 16.7016 3.61921L2.73772 17.3622C2.615 17.4824 2.5175 17.626 2.45094 17.7844C2.38438 17.9428 2.3501 18.1129 2.3501 18.2848C2.3501 18.4566 2.38438 18.6267 2.45094 18.7851C2.5175 18.9435 2.615 19.0871 2.73772 19.2073C2.98826 19.4522 3.32471 19.5894 3.67507 19.5894C4.02542 19.5894 4.36187 19.4522 4.61241 19.2073L17.4541 6.55156C17.5053 6.50113 17.5742 6.47286 17.6461 6.47286C17.7179 6.47286 17.7869 6.50113 17.838 6.55156L30.6371 19.1625C30.886 19.4106 31.223 19.5498 31.5744 19.5498C31.9258 19.5498 32.2629 19.4106 32.5118 19.1625C33.028 18.6452 33.0433 17.8325 32.526 17.3316V17.3327Z" fill="url(#paint19_radial_56_3155)"/>
<g id="Group_7" filter="url(#filter5_f_56_3155)">
<path id="Vector_23" d="M8.04785 29.8353H17.5V31.0735H8.04785V29.8353Z" fill="#68552B"/>
</g>
<g id="Group_8" filter="url(#filter6_i_56_3155)">
<path id="Vector_24" d="M2.34937 32.7382C2.34937 31.5165 3.3403 30.5266 4.56093 30.5266H30.695C31.9156 30.5266 32.9066 31.5165 32.9066 32.7382H2.34937Z" fill="url(#paint20_linear_56_3155)"/>
</g>
<path id="Vector_25" d="M2.34937 32.7382C2.34937 31.5165 3.3403 30.5266 4.56093 30.5266H30.695C31.9156 30.5266 32.9066 31.5165 32.9066 32.7382H2.34937Z" fill="url(#paint21_linear_56_3155)"/>
<path id="Vector_26" d="M2.34937 32.7382C2.34937 31.5165 3.3403 30.5266 4.56093 30.5266H30.695C31.9156 30.5266 32.9066 31.5165 32.9066 32.7382H2.34937Z" fill="url(#paint22_radial_56_3155)"/>
<path id="Vector_27" d="M8.27197 30.3822C8.27197 30.1646 8.3584 29.956 8.51224 29.8022C8.66607 29.6483 8.87472 29.5619 9.09228 29.5619H17.8565C18.3892 29.5619 18.8212 29.9939 18.8212 30.5266H8.27197V30.3822Z" fill="url(#paint23_linear_56_3155)"/>
<path id="Vector_28" d="M8.27197 30.3822C8.27197 30.1646 8.3584 29.956 8.51224 29.8022C8.66607 29.6483 8.87472 29.5619 9.09228 29.5619H17.8565C18.3892 29.5619 18.8212 29.9939 18.8212 30.5266H8.27197V30.3822Z" fill="url(#paint24_linear_56_3155)"/>
<path id="Vector_29" d="M8.27197 30.3822C8.27197 30.1646 8.3584 29.956 8.51224 29.8022C8.66607 29.6483 8.87472 29.5619 9.09228 29.5619H17.8565C18.3892 29.5619 18.8212 29.9939 18.8212 30.5266H8.27197V30.3822Z" fill="url(#paint25_linear_56_3155)"/>
<g id="Group_9" filter="url(#filter7_f_56_3155)">
<path id="Vector_30" d="M17.8696 4.26233L31.8445 18.0217" stroke="url(#paint26_linear_56_3155)" stroke-width="0.328125" stroke-linecap="round"/>
</g>
<g id="Group_10" filter="url(#filter8_f_56_3155)">
<path id="Vector_31" d="M17.8696 4.26233L3.89697 18.0217" stroke="url(#paint27_linear_56_3155)" stroke-opacity="0.5" stroke-width="0.328125" stroke-linecap="round"/>
</g>
</g>
</g>
<defs>
<filter id="filter0_f_56_3155" x="8.33765" y="17.6356" width="8.68774" height="14.8051" filterUnits="userSpaceOnUse" color-interpolation-filters="sRGB">
<feFlood flood-opacity="0" result="BackgroundImageFix"/>
<feBlend mode="normal" in="SourceGraphic" in2="BackgroundImageFix" result="shape"/>
<feGaussianBlur stdDeviation="0.273438" result="effect1_foregroundBlur_56_3155"/>
</filter>
<filter id="filter1_i_56_3155" x="19.821" y="17.5" width="6.96069" height="6.96057" filterUnits="userSpaceOnUse" color-interpolation-filters="sRGB">
<feFlood flood-opacity="0" result="BackgroundImageFix"/>
<feBlend mode="normal" in="SourceGraphic" in2="BackgroundImageFix" result="shape"/>
<feColorMatrix in="SourceAlpha" type="matrix" values="0 0 0 0 0 0 0 0 0 0 0 0 0 0 0 0 0 0 127 0" result="hardAlpha"/>
<feOffset dx="-0.546875" dy="0.546875"/>
<feGaussianBlur stdDeviation="0.273438"/>
<feComposite in2="hardAlpha" operator="arithmetic" k2="-1" k3="1"/>
<feColorMatrix type="matrix" values="0 0 0 0 0.0470588 0 0 0 0 0.47451 0 0 0 0 0.792157 0 0 0 1 0"/>
<feBlend mode="normal" in2="shape" result="effect1_innerShadow_56_3155"/>
</filter>
<filter id="filter2_ii_56_3155" x="9.09351" y="17.5175" width="8.96118" height="12.996" filterUnits="userSpaceOnUse" color-interpolation-filters="sRGB">
<feFlood flood-opacity="0" result="BackgroundImageFix"/>
<feBlend mode="normal" in="SourceGraphic" in2="BackgroundImageFix" result="shape"/>
<feColorMatrix in="SourceAlpha" type="matrix" values="0 0 0 0 0 0 0 0 0 0 0 0 0 0 0 0 0 0 127 0" result="hardAlpha"/>
<feOffset dx="0.273438"/>
<feGaussianBlur stdDeviation="0.273438"/>
<feComposite in2="hardAlpha" operator="arithmetic" k2="-1" k3="1"/>
<feColorMatrix type="matrix" values="0 0 0 0 0.254902 0 0 0 0 0.188235 0 0 0 0 0.141176 0 0 0 1 0"/>
<feBlend mode="normal" in2="shape" result="effect1_innerShadow_56_3155"/>
<feColorMatrix in="SourceAlpha" type="matrix" values="0 0 0 0 0 0 0 0 0 0 0 0 0 0 0 0 0 0 127 0" result="hardAlpha"/>
<feOffset dx="-0.21875"/>
<feGaussianBlur stdDeviation="0.164062"/>
<feComposite in2="hardAlpha" operator="arithmetic" k2="-1" k3="1"/>
<feColorMatrix type="matrix" values="0 0 0 0 0.694118 0 0 0 0 0.470588 0 0 0 0 0.407843 0 0 0 1 0"/>
<feBlend mode="normal" in2="effect1_innerShadow_56_3155" result="effect2_innerShadow_56_3155"/>
</filter>
<filter id="filter3_f_56_3155" x="14.8855" y="22.9775" width="1.54761" height="1.54761" filterUnits="userSpaceOnUse" color-interpolation-filters="sRGB">
<feFlood flood-opacity="0" result="BackgroundImageFix"/>
<feBlend mode="normal" in="SourceGraphic" in2="BackgroundImageFix" result="shape"/>
<feGaussianBlur stdDeviation="0.0820312" result="effect1_foregroundBlur_56_3155"/>
</filter>
<filter id="filter4_ii_56_3155" x="15.0925" y="23.0376" width="1.4502" height="1.23157" filterUnits="userSpaceOnUse" color-interpolation-filters="sRGB">
<feFlood flood-opacity="0" result="BackgroundImageFix"/>
<feBlend mode="normal" in="SourceGraphic" in2="BackgroundImageFix" result="shape"/>
<feColorMatrix in="SourceAlpha" type="matrix" values="0 0 0 0 0 0 0 0 0 0 0 0 0 0 0 0 0 0 127 0" result="hardAlpha"/>
<feOffset dx="-0.109375"/>
<feGaussianBlur stdDeviation="0.109375"/>
<feComposite in2="hardAlpha" operator="arithmetic" k2="-1" k3="1"/>
<feColorMatrix type="matrix" values="0 0 0 0 0.694118 0 0 0 0 0.482353 0 0 0 0 0.419608 0 0 0 1 0"/>
<feBlend mode="normal" in2="shape" result="effect1_innerShadow_56_3155"/>
<feColorMatrix in="SourceAlpha" type="matrix" values="0 0 0 0 0 0 0 0 0 0 0 0 0 0 0 0 0 0 127 0" result="hardAlpha"/>
<feOffset dx="0.109375"/>
<feGaussianBlur stdDeviation="0.109375"/>
<feComposite in2="hardAlpha" operator="arithmetic" k2="-1" k3="1"/>
<feColorMatrix type="matrix" values="0 0 0 0 0.290196 0 0 0 0 0.184314 0 0 0 0 0.164706 0 0 0 1 0"/>
<feBlend mode="normal" in2="effect1_innerShadow_56_3155" result="effect2_innerShadow_56_3155"/>
</filter>
<filter id="filter5_f_56_3155" x="7.50098" y="29.2885" width="10.5459" height="2.33191" filterUnits="userSpaceOnUse" color-interpolation-filters="sRGB">
<feFlood flood-opacity="0" result="BackgroundImageFix"/>
<feBlend mode="normal" in="SourceGraphic" in2="BackgroundImageFix" result="shape"/>
<feGaussianBlur stdDeviation="0.273438" result="effect1_foregroundBlur_56_3155"/>
</filter>
<filter id="filter6_i_56_3155" x="2.34937" y="30.5266" width="31.104" height="2.21155" filterUnits="userSpaceOnUse" color-interpolation-filters="sRGB">
<feFlood flood-opacity="0" result="BackgroundImageFix"/>
<feBlend mode="normal" in="SourceGraphic" in2="BackgroundImageFix" result="shape"/>
<feColorMatrix in="SourceAlpha" type="matrix" values="0 0 0 0 0 0 0 0 0 0 0 0 0 0 0 0 0 0 127 0" result="hardAlpha"/>
<feOffset dx="0.546875"/>
<feGaussianBlur stdDeviation="0.546875"/>
<feComposite in2="hardAlpha" operator="arithmetic" k2="-1" k3="1"/>
<feColorMatrix type="matrix" values="0 0 0 0 0.25098 0 0 0 0 0.545098 0 0 0 0 0.352941 0 0 0 1 0"/>
<feBlend mode="normal" in2="shape" result="effect1_innerShadow_56_3155"/>
</filter>
<filter id="filter7_f_56_3155" x="17.0493" y="3.44202" width="15.6155" height="15.4" filterUnits="userSpaceOnUse" color-interpolation-filters="sRGB">
<feFlood flood-opacity="0" result="BackgroundImageFix"/>
<feBlend mode="normal" in="SourceGraphic" in2="BackgroundImageFix" result="shape"/>
<feGaussianBlur stdDeviation="0.328125" result="effect1_foregroundBlur_56_3155"/>
</filter>
<filter id="filter8_f_56_3155" x="3.07666" y="3.44202" width="15.6133" height="15.4" filterUnits="userSpaceOnUse" color-interpolation-filters="sRGB">
<feFlood flood-opacity="0" result="BackgroundImageFix"/>
<feBlend mode="normal" in="SourceGraphic" in2="BackgroundImageFix" result="shape"/>
<feGaussianBlur stdDeviation="0.328125" result="effect1_foregroundBlur_56_3155"/>
</filter>
<radialGradient id="paint0_radial_56_3155" cx="0" cy="0" r="1" gradientUnits="userSpaceOnUse" gradientTransform="translate(10.4923 5.1122) rotate(90) scale(5.17346 2.82384)">
<stop stop-color="#F1B379"/>
<stop offset="1" stop-color="#CD915F"/>
</radialGradient>
<linearGradient id="paint1_linear_56_3155" x1="6.35683" y1="8.96111" x2="8.20964" y2="8.96111" gradientUnits="userSpaceOnUse">
<stop stop-color="#8E694B"/>
<stop offset="1" stop-color="#8E694B" stop-opacity="0"/>
</linearGradient>
<linearGradient id="paint2_linear_56_3155" x1="10.5273" y1="11.5533" x2="9.15136" y2="8.62095" gradientUnits="userSpaceOnUse">
<stop stop-color="#9F6A42"/>
<stop offset="1" stop-color="#9F6A42" stop-opacity="0"/>
</linearGradient>
<linearGradient id="paint3_linear_56_3155" x1="8.87683" y1="4.39689" x2="8.87683" y2="4.5872" gradientUnits="userSpaceOnUse">
<stop stop-color="#D5AD80"/>
<stop offset="1" stop-color="#D5AD80" stop-opacity="0"/>
</linearGradient>
<radialGradient id="paint4_radial_56_3155" cx="0" cy="0" r="1" gradientUnits="userSpaceOnUse" gradientTransform="translate(11.6101 4.67033) rotate(180) scale(3.068 0.599845)">
<stop stop-color="#FFCB8C"/>
<stop offset="1" stop-color="#FFCB8C" stop-opacity="0"/>
</radialGradient>
<linearGradient id="paint5_linear_56_3155" x1="5.99164" y1="22.7248" x2="29.5543" y2="22.7248" gradientUnits="userSpaceOnUse">
<stop stop-color="#D7905F"/>
<stop offset="1" stop-color="#E8BC97"/>
</linearGradient>
<linearGradient id="paint6_linear_56_3155" x1="6.65336" y1="32.5073" x2="15.084" y2="19.5289" gradientUnits="userSpaceOnUse">
<stop stop-color="#BA8951"/>
<stop offset="1" stop-color="#BA8951" stop-opacity="0"/>
</linearGradient>
<radialGradient id="paint7_radial_56_3155" cx="0" cy="0" r="1" gradientUnits="userSpaceOnUse" gradientTransform="translate(22.492 31.0406) rotate(-118.804) scale(4.19776 5.2685)">
<stop stop-color="#BEAB75"/>
<stop offset="1" stop-color="#BEAB75" stop-opacity="0"/>
</radialGradient>
<linearGradient id="paint8_linear_56_3155" x1="30.2488" y1="26.3331" x2="29.4405" y2="26.3331" gradientUnits="userSpaceOnUse">
<stop stop-color="#FFE6B1"/>
<stop offset="1" stop-color="#FFE6B1" stop-opacity="0"/>
</linearGradient>
<radialGradient id="paint9_radial_56_3155" cx="0" cy="0" r="1" gradientUnits="userSpaceOnUse" gradientTransform="translate(30.5463 16.3143) rotate(90) scale(5.15932 1.1659)">
<stop offset="0.35" stop-color="#9E413E"/>
<stop offset="1" stop-color="#9E413E" stop-opacity="0"/>
</radialGradient>
<linearGradient id="paint10_linear_56_3155" x1="22.1223" y1="9.84917" x2="20.8655" y2="11.1343" gradientUnits="userSpaceOnUse">
<stop stop-color="#B55852"/>
<stop offset="1" stop-color="#B55852" stop-opacity="0"/>
</linearGradient>
<linearGradient id="paint11_linear_56_3155" x1="4.92086" y1="28.8585" x2="5.78055" y2="28.8585" gradientUnits="userSpaceOnUse">
<stop stop-color="#845F3D"/>
<stop offset="1" stop-color="#845F3D" stop-opacity="0"/>
</linearGradient>
<linearGradient id="paint12_linear_56_3155" x1="12.682" y1="18.1836" x2="12.682" y2="31.8926" gradientUnits="userSpaceOnUse">
<stop stop-color="#805139"/>
<stop offset="1" stop-color="#6D4D2F"/>
</linearGradient>
<linearGradient id="paint13_linear_56_3155" x1="20.369" y1="24.3994" x2="27.2903" y2="17.5" gradientUnits="userSpaceOnUse">
<stop stop-color="#4CCCFF"/>
<stop offset="1" stop-color="#3A9EE6"/>
</linearGradient>
<linearGradient id="paint14_linear_56_3155" x1="23.5759" y1="24.3163" x2="23.5759" y2="23.0541" gradientUnits="userSpaceOnUse">
<stop stop-color="#1E9FE4"/>
<stop offset="1" stop-color="#1E9FE4" stop-opacity="0"/>
</linearGradient>
<linearGradient id="paint15_linear_56_3155" x1="20.369" y1="22.2841" x2="21.6575" y2="22.2841" gradientUnits="userSpaceOnUse">
<stop stop-color="#48E0FF"/>
<stop offset="1" stop-color="#48E0FF" stop-opacity="0"/>
</linearGradient>
<linearGradient id="paint16_linear_56_3155" x1="21.3392" y1="16.3778" x2="22.2021" y2="18.9667" gradientUnits="userSpaceOnUse">
<stop stop-color="#43B3F2"/>
<stop offset="1" stop-color="#43B3F2" stop-opacity="0"/>
</linearGradient>
<linearGradient id="paint17_linear_56_3155" x1="9.31226" y1="25.6681" x2="17.7812" y2="25.6189" gradientUnits="userSpaceOnUse">
<stop stop-color="#70504D"/>
<stop offset="1" stop-color="#9B665E"/>
</linearGradient>
<linearGradient id="paint18_linear_56_3155" x1="17.628" y1="3.21671" x2="17.628" y2="19.5891" gradientUnits="userSpaceOnUse">
<stop stop-color="#EA6D2E"/>
<stop offset="1" stop-color="#CA222B"/>
</linearGradient>
<radialGradient id="paint19_radial_56_3155" cx="0" cy="0" r="1" gradientUnits="userSpaceOnUse" gradientTransform="translate(18.547 2.11021) rotate(97.326) scale(3.94329 7.35949)">
<stop stop-color="#FF853F"/>
<stop offset="1" stop-color="#FF853F" stop-opacity="0"/>
</radialGradient>
<linearGradient id="paint20_linear_56_3155" x1="32.0611" y1="32.7382" x2="1.5728" y2="32.7382" gradientUnits="userSpaceOnUse">
<stop stop-color="#3FD47B"/>
<stop offset="1" stop-color="#40DC7F"/>
</linearGradient>
<linearGradient id="paint21_linear_56_3155" x1="17.628" y1="33.3244" x2="17.628" y2="31.6324" gradientUnits="userSpaceOnUse">
<stop offset="0.107" stop-color="#3FD17B"/>
<stop offset="1" stop-color="#3FD17B" stop-opacity="0"/>
</linearGradient>
<radialGradient id="paint22_radial_56_3155" cx="0" cy="0" r="1" gradientUnits="userSpaceOnUse" gradientTransform="translate(32.9066 30.2083) rotate(147.147) scale(3.66601 6.01135)">
<stop stop-color="#5CEE92"/>
<stop offset="1" stop-color="#5CEE92" stop-opacity="0"/>
</radialGradient>
<linearGradient id="paint23_linear_56_3155" x1="8.55635" y1="30.5266" x2="18.4362" y2="30.5266" gradientUnits="userSpaceOnUse">
<stop stop-color="#9FA1A3"/>
<stop offset="1" stop-color="#C4C1C7"/>
</linearGradient>
<linearGradient id="paint24_linear_56_3155" x1="8.09479" y1="30.5266" x2="9.3526" y2="30.5266" gradientUnits="userSpaceOnUse">
<stop stop-color="#59675C"/>
<stop offset="1" stop-color="#59675C" stop-opacity="0"/>
</linearGradient>
<linearGradient id="paint25_linear_56_3155" x1="18.8212" y1="30.0442" x2="17.1674" y2="31.0724" gradientUnits="userSpaceOnUse">
<stop stop-color="#E3DADD"/>
<stop offset="1" stop-color="#E3DADD" stop-opacity="0"/>
</linearGradient>
<linearGradient id="paint26_linear_56_3155" x1="17.4409" y1="4.04905" x2="32.4296" y2="19.4797" gradientUnits="userSpaceOnUse">
<stop stop-color="#FF8337"/>
<stop offset="1" stop-color="#F24747"/>
</linearGradient>
<linearGradient id="paint27_linear_56_3155" x1="18.2995" y1="4.04905" x2="3.31072" y2="19.4797" gradientUnits="userSpaceOnUse">
<stop stop-color="#FF8337"/>
<stop offset="1" stop-color="#F24747"/>
</linearGradient>
</defs>
</svg>
